<?xml version="1.0" standalone="no"?><!DOCTYPE svg PUBLIC "-//W3C//DTD SVG 1.1//EN" "http://www.w3.org/Graphics/SVG/1.1/DTD/svg11.dtd"><svg t="1603553519367" class="icon" viewBox="0 0 1024 1024" version="1.1" xmlns="http://www.w3.org/2000/svg" p-id="2414" xmlns:xlink="http://www.w3.org/1999/xlink" width="200" height="200"><defs><style type="text/css"></style></defs><path d="M533.312 512m-416 0a416 416 0 1 0 832 0 416 416 0 1 0-832 0Z" fill="#AEECFF" p-id="2415"></path><path d="M633.984 686.016s-86.016 37.504-208 23.744v138.24h351.872a417.216 417.216 0 0 0 141.76-182.336c-1.216-0.448-116.544-45.312-285.632 20.352z" fill="#007CBC" p-id="2416"></path><path d="M533.312 694.016c-178.56-91.392-383.744-26.176-385.344-25.664A416.064 416.064 0 0 0 533.312 928a415.872 415.872 0 0 0 386.176-261.952c-4.096 3.712-162.496 142.464-386.176 27.968z" fill="#1DD4FF" p-id="2417"></path><path d="M945.152 568h-287.104l-22.976 120.896 274.624-0.512a414.912 414.912 0 0 0 35.456-120.384z" fill="#006AA0" p-id="2418"></path><path d="M657.984 568l94.016 121.984 22.016-121.856z" fill="#007CBC" p-id="2419"></path><path d="M771.52 568.128l138.112 120.256 8.384-120.384z" fill="#007CBC" p-id="2420"></path><path d="M769.984 568l-17.984 121.984 89.984-1.472z" fill="#006AA0" p-id="2421"></path><path d="M952.448 297.984h-185.344v270.016h179.712s3.136-38.656 5.632-76.992c3.136-48.192 0-193.024 0-193.024z" fill="#FFFFFF" p-id="2422"></path><path d="M989.312 285.568a12.8 12.8 0 0 0-12.8-12.8h-236.992a12.8 12.8 0 0 0-12.8 12.8c0 7.04 5.76 12.8 12.8 12.8h236.992a12.8 12.8 0 0 0 12.8-12.8z" fill="#F2F2F2" p-id="2423"></path><path d="M782.656 196.608h153.344v76.8h-153.344z" fill="#D7D7D7" p-id="2424"></path><path d="M811.968 119.872h94.72v76.8h-94.72z" fill="#D7D7D7" p-id="2425"></path><path d="M830.656 157.504a24.64 20.032 90 1 0 40.064 0 24.64 20.032 90 1 0-40.064 0Z" fill="#F8FF30" p-id="2426"></path><path d="M839.168 137.92L156.032 336s-59.904 107.392-31.936 254.016l726.592-407.808-11.52-44.288z" fill="#FEFDA1" p-id="2427"></path><path d="M246.016 381.504m-8 0a8 8 0 1 0 16 0 8 8 0 1 0-16 0Z" fill="#D6D47D" p-id="2428"></path><path d="M208 470.016m-8 0a8 8 0 1 0 16 0 8 8 0 1 0-16 0Z" fill="#D6D47D" p-id="2429"></path><path d="M342.976 401.024m-8 0a8 8 0 1 0 16 0 8 8 0 1 0-16 0Z" fill="#D6D47D" p-id="2430"></path><path d="M398.016 331.264m-6.976 0a6.976 6.976 0 1 0 13.952 0 6.976 6.976 0 1 0-13.952 0Z" fill="#D6D47D" p-id="2431"></path><path d="M222.976 350.016m-4.8 0a4.8 4.8 0 1 0 9.6 0 4.8 4.8 0 1 0-9.6 0Z" fill="#D6D47D" p-id="2432"></path><path d="M246.016 441.024m-4.8 0a4.8 4.8 0 1 0 9.6 0 4.8 4.8 0 1 0-9.6 0Z" fill="#D6D47D" p-id="2433"></path><path d="M177.024 408m-6.976 0a6.976 6.976 0 1 0 13.952 0 6.976 6.976 0 1 0-13.952 0Z" fill="#D6D47D" p-id="2434"></path><path d="M145.024 536m-6.976 0a6.976 6.976 0 1 0 13.952 0 6.976 6.976 0 1 0-13.952 0Z" fill="#D6D47D" p-id="2435"></path><path d="M750.016 216h222.976v9.024h-222.976zM761.024 225.024h6.144v47.808h-6.144zM782.72 225.024h6.144v47.808h-6.144zM804.48 225.024h6.144v47.808h-6.144zM826.24 225.024h6.144v47.808h-6.144zM848 225.024h6.144v47.808h-6.144zM869.76 225.024h6.144v47.808h-6.144zM891.52 225.024h6.144v47.808h-6.144zM913.28 225.024h6.144v47.808h-6.144zM934.976 225.024h6.144v47.808h-6.144zM956.736 225.024h6.144v47.808h-6.144z" fill="#000333" p-id="2436"></path><path d="M871.424 41.984H870.4c-2.368-3.392-5.696-6.016-10.112-6.016s-7.744 2.624-10.112 6.016h-0.576l-63.744 77.824h149.312L871.424 41.984zM953.344 350.016h-186.176v59.84h186.688l-0.512-59.84zM952.448 491.008c0.448-6.976 0.768-16.448 0.96-26.816h-186.24v59.84h182.976l2.304-33.024z" fill="#FF5D4A" p-id="2437"></path></svg>